<?xml version="1.0" standalone="no"?>
<!DOCTYPE svg PUBLIC "-//W3C//DTD SVG 20010904//EN"
 "http://www.w3.org/TR/2001/REC-SVG-20010904/DTD/svg10.dtd">
<svg version="1.0" xmlns="http://www.w3.org/2000/svg"
 width="640.000000pt" height="640.000000pt" viewBox="0 0 640.000000 640.000000"
 preserveAspectRatio="xMidYMid meet">
<metadata>
Created by potrace 1.11, written by Peter Selinger 2001-2013
</metadata>
<g transform="translate(0.000000,640.000000) scale(0.100000,-0.100000)"
fill="#000000" stroke="none">
<path d="M843 6389 c-5 -5 -82 -14 -169 -19 -179 -11 -287 -20 -282 -25 2 -2
46 -6 98 -9 52 -3 172 -12 265 -21 339 -30 562 -17 830 47 22 5 52 12 68 15
88 18 -2 23 -380 23 -279 0 -423 -4 -430 -11z"/>
<path d="M1910 6391 c0 -8 -118 -48 -205 -70 -22 -6 -69 -18 -105 -27 -36 -9
-83 -19 -105 -23 -23 -4 -46 -10 -52 -14 -7 -4 -54 -15 -105 -23 -118 -21
-429 -14 -523 11 -33 9 -78 20 -100 24 -22 5 -60 15 -85 24 -29 9 -106 17
-215 22 -205 8 -176 8 -260 -5 -78 -13 -100 -13 -132 -5 l-23 5 0 -694 0 -695
35 -80 c19 -43 35 -88 35 -98 0 -11 4 -23 8 -29 9 -9 23 -55 43 -139 6 -27 22
-81 34 -120 74 -228 130 -713 119 -1045 -5 -168 -49 -518 -67 -536 -4 -4 -7
-17 -7 -29 0 -12 -8 -46 -19 -76 -96 -276 -103 -295 -152 -391 l-29 -57 0
-1161 0 -1160 3200 0 3200 0 0 2425 0 2425 -28 0 c-28 0 -45 3 -227 35 -92 17
-145 30 -180 45 -11 5 -55 21 -99 35 -43 14 -97 34 -119 45 -22 11 -45 20 -50
20 -4 0 -27 12 -50 28 -55 35 -73 46 -122 72 -54 30 -138 90 -148 106 -4 8
-13 14 -18 14 -16 0 -93 56 -125 90 -16 17 -51 46 -79 64 -27 19 -61 46 -75
60 -13 15 -42 36 -65 47 -39 19 -97 67 -254 208 -40 36 -93 80 -116 96 -88 63
-266 216 -324 279 -105 115 -144 160 -195 229 l-59 77 -1078 0 c-594 0 -1079
-4 -1079 -9z m140 -201 c0 -12 -24 -12 -60 0 -21 7 -19 8 18 9 23 1 42 -3 42
-9z m105 -21 c5 -5 0 -9 -14 -9 -12 0 -49 -21 -81 -46 -41 -32 -65 -44 -77
-40 -16 7 -69 -15 -102 -41 -9 -7 -25 -19 -36 -27 -11 -8 -17 -18 -13 -22 5
-4 17 1 28 11 10 9 26 15 34 12 8 -3 40 1 73 8 84 20 228 19 289 -2 l49 -18
-125 -7 c-106 -5 -174 -15 -307 -45 -14 -3 -23 -13 -23 -24 0 -16 8 -19 55
-19 46 0 70 -7 138 -43 102 -54 164 -74 178 -60 7 7 22 5 47 -8 20 -10 45 -20
54 -23 21 -6 14 -32 -13 -47 -15 -7 -17 -6 -13 5 7 18 -43 46 -82 46 -26 0
-74 13 -119 31 -51 21 -177 59 -196 59 -51 0 -27 -69 53 -151 26 -27 43 -49
37 -49 -26 0 -97 63 -129 114 -19 31 -39 56 -44 56 -6 0 -20 -10 -33 -22 -31
-29 -29 -71 3 -114 34 -44 13 -46 -39 -3 -75 62 -102 166 -68 268 21 64 63
131 82 131 6 0 24 14 41 30 33 34 89 61 122 59 15 -1 10 -4 -14 -12 -49 -16
-86 -55 -82 -89 2 -16 9 -28 15 -28 12 0 65 34 127 82 19 14 47 30 63 33 15 4
27 11 27 16 0 11 81 0 95 -12z m66 -28 c13 -11 21 -22 18 -25 -7 -8 -69 25
-69 37 0 13 28 7 51 -12z m54 -51 c3 -5 -1 -10 -9 -10 -9 0 -16 5 -16 10 0 6
4 10 9 10 6 0 13 -4 16 -10z m38 -34 c9 -7 17 -18 17 -25 0 -6 4 -11 9 -11 8
0 23 -51 17 -58 -10 -10 -33 12 -29 28 3 12 -4 28 -21 43 -37 35 -32 53 7 23z
m41 -187 c-9 -10 -21 -16 -27 -12 -6 4 -4 11 6 18 10 7 20 27 24 46 l8 34 3
-33 c2 -22 -3 -41 -14 -53z m-74 -12 l35 -11 -28 -4 c-16 -2 -43 2 -60 8 -22
7 -33 7 -35 0 -6 -18 -32 -11 -32 9 0 33 13 33 120 -2z m2127 -55 c7 -4 15
-22 19 -38 5 -27 1 -33 -35 -57 -22 -15 -45 -27 -50 -27 -12 0 -169 -76 -185
-89 -6 -5 -31 -17 -56 -26 -25 -10 -64 -26 -87 -36 -24 -10 -47 -19 -53 -19
-6 0 -42 -16 -80 -35 -38 -19 -76 -35 -85 -35 -8 0 -23 -4 -33 -9 -32 -18
-150 -61 -166 -61 -13 0 -36 35 -36 54 0 3 158 81 195 97 11 4 42 15 70 24 58
19 78 33 71 51 -10 25 116 73 139 54 9 -8 19 -8 32 -1 10 6 56 28 103 50 47
23 112 56 145 75 65 37 74 40 92 28z m67 -153 c32 -35 37 -46 34 -81 -2 -29
-9 -44 -23 -52 -11 -6 -44 -25 -72 -43 -29 -18 -56 -33 -61 -33 -5 0 -36 -13
-70 -30 -34 -16 -68 -30 -75 -30 -7 0 -35 -12 -62 -27 -59 -31 -334 -128 -391
-137 -38 -6 -40 -4 -82 45 -65 79 -61 84 98 141 74 26 174 66 222 88 47 22 91
40 96 40 13 0 165 72 172 81 9 12 80 49 94 49 8 0 27 7 42 15 16 8 32 15 35
15 4 0 23 -18 43 -41z m-2211 15 c9 -4 17 -11 17 -18 0 -6 11 -23 25 -38 15
-16 21 -29 14 -33 -16 -10 -42 4 -36 19 5 13 -11 34 -39 49 -7 4 -11 -6 -12
-27 -1 -25 4 -36 21 -45 19 -10 17 -11 -19 -7 -33 3 -41 1 -40 -12 1 -19 -45
-34 -101 -32 -33 1 -41 -2 -37 -13 6 -18 -52 -29 -78 -15 -19 9 -25 48 -8 48
6 0 10 -7 10 -15 0 -8 2 -15 4 -15 2 0 12 -3 21 -6 13 -5 16 -1 13 21 -2 23 2
30 27 38 17 5 32 13 35 17 3 3 14 10 25 14 16 6 17 9 5 16 -8 5 -24 4 -39 -4
-14 -7 -39 -12 -56 -10 -16 1 -45 3 -63 3 -68 2 -19 18 74 25 99 7 194 30 194
48 0 5 6 7 13 4 6 -3 20 -9 30 -12z m153 5 c90 3 106 -14 23 -24 -52 -6 -62
-11 -70 -32 -5 -13 -14 -21 -20 -18 -6 4 -8 13 -5 21 3 7 -6 22 -19 32 -25 20
-22 38 4 26 9 -4 48 -6 87 -5z m-523 -46 c-7 -2 -19 -2 -25 0 -7 3 -2 5 12 5
14 0 19 -2 13 -5z m2715 -154 c11 -21 16 -42 11 -45 -17 -10 -9 -23 18 -26 33
-4 57 -43 42 -70 -5 -10 -16 -18 -23 -18 -8 0 -31 -9 -53 -19 -21 -11 -65 -31
-98 -46 -33 -14 -82 -37 -110 -52 -27 -14 -97 -41 -155 -60 -104 -34 -129 -47
-118 -59 5 -5 165 43 269 81 l35 13 42 -48 c23 -27 42 -52 42 -55 0 -4 9 -20
21 -36 28 -39 18 -63 -37 -88 -62 -29 -101 -36 -119 -21 -17 14 -20 50 -5 50
21 0 21 30 1 59 -22 30 -27 31 -76 11 -11 -4 -40 -13 -65 -20 -92 -25 -110
-32 -115 -41 -4 -5 1 -12 9 -15 11 -4 14 -14 10 -29 -3 -13 -1 -26 4 -29 19
-11 40 5 46 36 9 43 34 68 68 68 16 0 38 5 48 10 13 7 21 7 26 -2 12 -20 6
-110 -9 -125 -7 -8 -45 -24 -82 -37 -68 -23 -69 -23 -89 -4 -20 19 -21 19 -30
-1 -5 -11 -33 -32 -63 -46 -52 -26 -55 -26 -74 -9 -25 22 -24 46 1 62 12 7 20
23 20 38 0 24 -3 26 -27 20 -91 -20 -92 -20 -103 9 -14 38 -8 51 29 58 29 6
51 31 38 43 -3 4 -29 -2 -57 -11 -49 -16 -52 -16 -71 1 -29 26 -24 50 14 60
30 8 29 8 -21 12 -46 3 -54 6 -68 34 -9 17 -12 34 -7 38 9 10 81 36 248 92
148 50 139 46 260 103 153 73 255 124 294 150 41 26 50 22 79 -36z m66 -244
c-9 -31 -15 -57 -13 -58 60 -47 70 -50 111 -36 37 12 42 11 54 -6 8 -10 14
-24 14 -31 0 -14 -74 -64 -94 -64 -8 0 -18 -4 -21 -10 -18 -29 -119 8 -177 64
-33 32 -35 39 -28 68 5 18 12 45 15 60 4 19 16 32 43 45 20 9 39 20 42 24 7
10 64 15 68 6 2 -4 -4 -32 -14 -62z m-1749 -60 c43 -64 79 -95 110 -95 17 0
29 -11 43 -39 26 -50 16 -64 -56 -79 -78 -17 -87 -12 -198 134 -39 51 -54 78
-54 98 0 17 42 34 87 35 28 1 36 -6 68 -54z m-143 -110 c21 -38 43 -81 49 -95
14 -34 81 -130 90 -130 4 0 51 16 105 35 55 19 104 35 111 35 6 0 34 -46 62
-102 27 -57 68 -131 90 -165 28 -43 41 -73 41 -97 0 -39 -16 -52 -107 -82 -26
-9 -78 -31 -115 -50 -37 -18 -73 -31 -81 -29 -19 8 -50 71 -44 89 4 9 14 16
24 16 10 0 41 11 68 25 28 13 56 25 63 25 19 0 14 29 -10 63 -13 17 -34 54
-48 81 -25 49 -27 51 -65 49 -21 -2 -43 -7 -49 -13 -5 -5 -18 -10 -28 -10 -10
0 -26 -4 -36 -9 -47 -25 -132 -61 -169 -72 -24 -7 -43 -14 -43 -15 0 -12 36
-91 46 -101 13 -13 104 -195 104 -207 0 -11 -121 -65 -134 -60 -7 3 -26 33
-42 66 -16 34 -50 97 -76 141 -27 43 -48 83 -48 88 0 11 -25 12 -48 0 -50 -26
-132 -51 -163 -51 -33 0 -38 3 -53 43 -21 55 -20 67 2 67 10 0 22 3 25 6 9 10
109 43 128 44 8 0 24 6 34 14 19 13 18 16 -16 72 -20 33 -41 73 -48 89 -27 67
-30 69 -113 41 -41 -14 -93 -28 -116 -32 -41 -6 -42 -6 -57 29 -20 49 -19 67
4 67 11 0 22 4 25 9 3 4 27 14 53 21 70 19 106 39 99 55 -3 10 15 24 60 45
l65 32 25 -26 c22 -22 29 -23 52 -13 15 6 33 16 41 21 21 17 163 64 186 62 14
-1 31 -22 57 -71z m-1530 -372 c10 -9 18 -22 18 -30 0 -20 32 -16 92 12 29 14
59 25 66 25 7 0 22 -20 34 -44 18 -37 19 -47 8 -60 -7 -9 -19 -16 -26 -16 -8
0 -24 -5 -37 -12 -12 -6 -28 -14 -36 -18 -39 -18 -36 -36 27 -163 34 -68 62
-129 62 -136 0 -6 4 -19 9 -29 87 -171 145 -308 138 -325 -7 -19 -94 -59 -119
-55 -14 2 -27 21 -44 63 -13 33 -44 101 -68 150 -53 108 -96 204 -96 216 0 4
-16 35 -35 68 -19 32 -35 66 -35 74 0 8 -8 24 -17 36 l-18 21 -59 -20 c-33
-11 -65 -20 -72 -20 -14 0 -44 60 -44 86 0 7 30 27 66 44 68 31 69 33 49 82
-5 13 4 22 42 42 57 30 71 31 95 9z m-488 -177 c18 -44 24 -47 72 -34 92 24
99 23 122 -17 36 -60 31 -70 -48 -91 -38 -10 -70 -22 -70 -27 0 -4 5 -18 12
-30 7 -12 20 -42 29 -67 51 -135 71 -185 89 -218 11 -20 29 -59 40 -87 12 -27
25 -59 30 -70 4 -11 18 -47 31 -80 12 -33 26 -64 31 -70 14 -16 9 -35 -10 -35
-10 0 -22 -4 -28 -8 -7 -7 -82 -32 -95 -32 -12 0 -99 210 -99 238 0 12 -19 51
-30 62 -7 7 -25 46 -55 125 -68 174 -94 225 -116 225 -29 0 -130 -29 -145 -41
-11 -9 -18 -3 -34 32 -11 24 -20 49 -20 55 0 12 69 44 95 44 8 0 26 5 40 12
28 12 33 45 13 78 -15 24 -13 26 53 50 72 26 77 25 93 -14z m777 -64 c17 -37
39 -85 49 -107 23 -53 58 -126 69 -145 5 -8 18 -33 29 -55 13 -29 26 -41 44
-43 27 -3 74 -72 65 -96 -3 -7 -31 -23 -62 -36 -54 -22 -58 -22 -91 -7 -19 9
-34 23 -34 30 0 7 -12 38 -26 68 -15 30 -33 71 -40 92 -7 21 -23 50 -34 64
-11 14 -20 29 -20 34 0 9 -53 131 -69 159 -19 34 -22 77 -7 89 19 16 67 29 83
24 7 -3 26 -35 44 -71z m-330 -119 c17 -38 35 -75 40 -83 22 -37 51 -102 85
-190 20 -52 43 -105 51 -118 8 -13 13 -40 11 -60 -3 -33 -8 -40 -48 -59 -25
-13 -76 -30 -114 -40 -60 -14 -72 -15 -94 -2 -31 17 -73 98 -132 254 -4 11
-26 58 -48 105 -72 151 -76 163 -55 178 28 20 93 35 107 23 6 -5 17 -27 25
-48 15 -45 26 -70 80 -185 23 -48 41 -91 41 -95 0 -4 10 -29 23 -55 16 -36 28
-48 45 -48 26 0 28 16 8 62 -8 18 -23 53 -34 78 -11 25 -23 56 -27 70 -4 14
-21 53 -36 88 -16 34 -29 65 -29 68 0 3 -9 19 -21 35 -28 40 -21 61 26 75 22
7 45 13 52 13 7 1 26 -29 44 -66z m-545 -101 c17 -11 70 -118 115 -232 22 -58
55 -134 71 -170 17 -37 31 -84 31 -109 2 -39 -1 -46 -28 -62 -17 -10 -48 -21
-70 -24 l-40 -7 -14 47 c-10 34 -11 49 -2 58 16 16 14 32 -10 80 -11 23 -48
112 -80 196 -33 85 -66 162 -74 171 -24 26 3 45 85 59 3 0 10 -3 16 -7z m3337
-235 c31 -60 69 -122 90 -147 22 -25 27 -33 75 -119 14 -25 38 -61 53 -79 16
-18 29 -37 29 -43 0 -6 9 -24 20 -39 14 -19 25 -63 35 -132 20 -142 32 -210
44 -255 19 -73 36 -192 61 -423 17 -158 48 -355 70 -445 11 -44 25 -118 31
-165 6 -47 14 -112 19 -145 4 -33 13 -103 19 -155 21 -187 61 -484 81 -595 12
-68 28 -174 39 -270 6 -44 18 -133 27 -197 17 -126 15 -162 -13 -171 -45 -14
-136 -57 -151 -70 -10 -8 -64 -36 -122 -61 -58 -26 -116 -53 -130 -60 -96 -53
-173 -87 -180 -78 -13 15 -30 91 -40 187 -6 55 -15 136 -21 180 -9 75 -17 158
-39 385 -27 280 -45 438 -59 515 -21 116 -67 535 -91 830 -17 209 -45 448 -54
463 -6 10 -10 42 -42 287 -25 199 -21 185 -54 185 -16 0 -56 -13 -88 -30 -33
-16 -67 -30 -75 -30 -9 0 -31 -6 -49 -14 -18 -8 -60 -24 -93 -36 -33 -12 -69
-25 -80 -30 -11 -4 -37 -13 -59 -20 -21 -6 -54 -23 -73 -36 -20 -13 -46 -24
-57 -24 -12 0 -26 -4 -31 -8 -6 -5 -37 -19 -70 -31 -33 -13 -68 -27 -77 -32
-33 -17 -53 -9 -78 31 -14 22 -28 40 -32 40 -5 0 -8 6 -8 13 0 15 -77 166
-116 228 -17 26 -36 66 -44 89 -15 46 -10 54 40 66 31 7 48 14 130 52 36 17
88 38 115 47 28 9 59 20 70 25 11 5 48 18 82 29 33 10 82 31 107 45 26 14 53
26 61 26 9 0 24 5 35 10 11 6 29 15 40 20 11 6 29 10 39 10 11 0 23 5 26 10 3
6 15 10 26 10 10 0 27 4 37 9 89 44 130 61 144 61 9 0 20 5 23 10 3 6 17 10
30 10 13 0 27 5 30 10 3 6 17 10 30 10 13 0 27 5 30 10 3 6 15 10 26 10 11 0
48 13 82 29 103 47 105 47 130 -2z m-1173 -1027 c0 -5 -2 -10 -4 -10 -3 0 -8
5 -11 10 -3 6 -1 10 4 10 6 0 11 -4 11 -10z"/>
<path d="M1764 6072 c-12 -10 -24 -28 -28 -39 -6 -19 -4 -21 21 -14 17 5 32
18 40 39 15 38 2 43 -33 14z"/>
<path d="M4217 5495 c-60 -30 -115 -55 -123 -55 -8 0 -22 -4 -32 -9 -9 -5 -30
-15 -47 -21 -130 -50 -189 -77 -193 -88 -7 -23 47 -12 120 23 40 20 93 42 118
49 26 8 67 23 93 35 25 12 49 21 52 21 12 0 145 84 145 92 0 16 -27 7 -133
-47z"/>
<path d="M2160 5600 c0 -5 -5 -9 -11 -7 -6 1 -14 -4 -16 -10 -7 -20 15 -15 37
7 16 16 17 20 5 20 -8 0 -15 -4 -15 -10z"/>
<path d="M4448 5371 c-20 -10 -50 -28 -66 -40 -17 -11 -35 -21 -41 -21 -6 0
-19 -4 -29 -9 -33 -18 -88 -39 -180 -71 -51 -17 -107 -39 -125 -50 -18 -10
-48 -21 -68 -24 -38 -7 -75 -38 -65 -55 4 -6 21 -5 49 4 23 7 74 23 112 35 39
12 93 32 120 45 28 12 68 28 90 35 22 7 44 16 50 21 5 5 15 9 22 9 7 0 41 14
75 30 34 17 66 30 72 30 5 0 27 12 48 26 30 21 36 30 27 40 -15 19 -47 17 -91
-5z"/>
<path d="M4568 5383 c7 -3 16 -2 19 1 4 3 -2 6 -13 5 -11 0 -14 -3 -6 -6z"/>
<path d="M2567 4958 c-40 -18 -47 -24 -41 -42 4 -11 11 -22 15 -24 5 -2 9 -9
9 -17 0 -18 71 -143 85 -149 14 -5 112 27 127 42 11 11 -11 61 -42 97 -9 11
-23 36 -30 55 -26 68 -42 73 -123 38z"/>
<path d="M3855 3948 c-123 -41 -214 -76 -249 -95 -16 -9 -43 -19 -60 -24 -49
-12 -213 -73 -301 -111 -44 -19 -105 -43 -135 -52 -30 -10 -66 -22 -80 -28
-14 -6 -34 -14 -45 -18 -11 -4 -40 -17 -65 -28 -85 -39 -175 -72 -194 -72 -16
0 -18 -5 -13 -35 3 -19 13 -42 21 -51 9 -8 35 -54 58 -102 23 -48 57 -110 75
-139 18 -29 33 -56 33 -61 0 -19 33 -22 63 -7 16 8 36 15 44 15 7 0 21 4 31 9
9 5 31 14 47 21 17 7 47 21 67 32 38 19 160 66 260 98 57 19 188 72 220 90 10
6 28 10 41 10 13 0 28 5 34 11 6 6 21 9 34 7 22 -3 25 -9 31 -73 7 -74 21
-175 37 -265 24 -133 55 -386 71 -580 12 -145 27 -293 40 -392 5 -43 14 -111
19 -150 5 -40 19 -122 30 -183 11 -60 21 -132 21 -158 0 -27 4 -78 9 -115 5
-37 15 -123 21 -192 6 -69 15 -161 20 -205 6 -44 17 -147 26 -230 8 -82 19
-168 24 -190 5 -22 14 -93 21 -159 8 -73 18 -120 25 -123 7 -2 23 2 36 10 13
9 71 36 130 61 59 25 125 57 147 71 23 14 46 25 52 25 6 0 36 14 66 30 30 17
61 30 68 30 26 0 33 33 24 115 -11 113 -28 225 -34 235 -3 5 -10 44 -15 87 -6
43 -15 112 -21 153 -14 105 -28 221 -38 315 -26 238 -68 528 -81 560 -5 11
-13 63 -20 115 -6 52 -15 111 -20 130 -5 19 -11 55 -14 80 -5 54 -41 342 -57
460 -6 47 -15 96 -20 110 -9 26 -34 180 -49 305 -19 148 -32 220 -46 245 -33
58 -154 246 -168 260 -8 9 -29 42 -46 75 -30 58 -67 106 -79 104 -3 -1 -46
-15 -96 -31z"/>
<path d="M4220 6393 c0 -11 91 -131 145 -191 84 -95 253 -262 264 -262 6 0 40
-28 75 -62 73 -73 171 -159 196 -173 10 -5 53 -41 95 -80 79 -71 137 -115 152
-115 5 0 31 -19 58 -41 28 -23 68 -54 90 -69 22 -15 57 -44 79 -64 21 -20 52
-43 70 -51 17 -8 45 -24 61 -35 17 -11 40 -24 53 -30 13 -5 38 -21 55 -34 18
-13 77 -48 132 -76 55 -28 107 -57 115 -65 27 -23 116 -45 310 -75 41 -6 94
-16 117 -21 23 -5 58 -9 77 -9 l36 0 0 84 0 83 -47 7 c-138 20 -282 36 -321
36 -33 0 -53 7 -81 29 -20 16 -69 43 -109 60 -41 17 -86 40 -102 51 -15 11
-34 20 -42 20 -7 0 -24 10 -38 21 -14 11 -56 41 -95 66 -38 25 -80 56 -92 69
-12 13 -57 46 -100 73 -43 28 -105 70 -137 93 -33 24 -71 49 -85 57 -14 7 -44
30 -66 51 -22 20 -57 47 -77 59 -20 12 -50 37 -66 55 -16 18 -37 38 -46 43
-62 35 -328 302 -365 368 -16 28 -43 63 -60 79 -17 17 -31 36 -31 43 0 10 -26
13 -110 13 -60 0 -110 -3 -110 -7z"/>
<path d="M1 3610 c0 -895 1 -933 17 -900 38 76 78 242 101 420 6 47 15 117 20
155 26 187 23 359 -8 660 -18 172 -68 423 -105 530 l-25 70 0 -935z"/>
</g>
</svg>
